<?xml version="1.0" encoding="utf-8"?>
<!-- Generator: Adobe Illustrator 24.0.3, SVG Export Plug-In . SVG Version: 6.00 Build 0)  -->
<svg version="1.1" id="Layer_1" xmlns="http://www.w3.org/2000/svg" xmlns:xlink="http://www.w3.org/1999/xlink" x="0px" y="0px"
	 viewBox="0 0 600 104.7" style="enable-background:new 0 0 600 104.7;" xml:space="preserve">
<style type="text/css">
	.st0{clip-path:url(#SVGID_2_);fill:#695B62;}
	.st1{clip-path:url(#SVGID_4_);fill:#695B62;}
	.st2{clip-path:url(#SVGID_6_);fill:#695B62;}
	.st3{clip-path:url(#SVGID_8_);fill:#695B62;}
	.st4{fill:#FFE800;}
</style>
<g>
	<g>
		<g>
			<defs>
				<rect id="SVGID_1_" x="220" y="28.2" width="157.1" height="70.9"/>
			</defs>
			<clipPath id="SVGID_2_">
				<use xlink:href="#SVGID_1_"  style="overflow:visible;"/>
			</clipPath>
			<path class="st0" d="M311.4,61.9h6.2v-1.7h-4.2v-2h3.4v-1.8h-3.4v-2.7h4.1V52h-6.1V61.9z M299.5,61.9h2v-6.2l4.7,6.2h1.5V52h-2
				v6.2l-4.7-6.2h-1.5V61.9z M276.8,56.9c0-2,1.4-3.4,3.3-3.4c1.8,0,3.3,1.3,3.3,3.4c0,2-1.4,3.4-3.3,3.4
				C278.2,60.3,276.8,58.9,276.8,56.9 M274.8,56.9c0,3,2.3,5.2,5.3,5.2c3,0,5.3-2.1,5.3-5.2c0-3-2.3-5.2-5.3-5.2
				C277.1,51.8,274.8,53.9,274.8,56.9 M266.7,61.9h6v-1.7h-4V52h-2V61.9z M255.3,56.9c0-2,1.4-3.4,3.3-3.4c1.8,0,3.3,1.3,3.3,3.4
				c0,2-1.4,3.4-3.3,3.4C256.7,60.3,255.3,58.9,255.3,56.9 M253.2,56.9c0,3,2.3,5.2,5.3,5.2s5.3-2.1,5.3-5.2c0-3-2.3-5.2-5.3-5.2
				C255.6,51.8,253.2,53.9,253.2,56.9 M242.9,56.9c0,3.2,2.5,5.2,5.3,5.2c1,0,1.9-0.2,2.7-0.5l-0.6-1.6c-0.6,0.3-1.2,0.4-2,0.4
				c-1.7,0-3.3-1.2-3.3-3.4c0-2,1.4-3.4,3.2-3.4c0.8,0,1.5,0.1,2,0.4l0.6-1.6c-0.9-0.4-1.8-0.5-2.8-0.5
				C245.3,51.8,242.9,53.8,242.9,56.9"/>
		</g>
		<g>
			<defs>
				<rect id="SVGID_3_" x="220" y="28.2" width="157.1" height="70.9"/>
			</defs>
			<clipPath id="SVGID_4_">
				<use xlink:href="#SVGID_3_"  style="overflow:visible;"/>
			</clipPath>
			<path class="st1" d="M346,75.4h6.2v-1.7H348v-2h3.4V70H348v-2.7h4.1v-1.7H346V75.4L346,75.4z M334.9,70.4c0,3.2,2.5,5.2,5.3,5.2
				c1,0,1.9-0.2,2.7-0.5l-0.6-1.6c-0.6,0.3-1.2,0.4-2,0.4c-1.7,0-3.3-1.2-3.3-3.4c0-2,1.4-3.4,3.2-3.4c0.8,0,1.5,0.1,2,0.4l0.6-1.6
				c-0.9-0.4-1.8-0.5-2.8-0.5C337.3,65.4,334.9,67.4,334.9,70.4 M323.8,75.4h2v-6.2l4.7,6.2h1.5v-9.9h-2v6.2l-4.7-6.2h-1.5V75.4z
				 M314.5,75.4h6.2v-1.7h-4.2v-2h3.4V70h-3.4v-2.7h4.1v-1.7h-6.1V75.4z M297.5,75.4h2v-9.9h-2V75.4z M288.6,75.4h6v-1.7h-4v-8.2h-2
				V75.4z M279.8,75.4h6v-1.7h-4v-8.2h-2V75.4z M270.5,75.4h6.2v-1.7h-4.2v-2h3.4V70h-3.4v-2.7h4.1v-1.7h-6.1V75.4z M263,75.4h2
				v-8.2h2.7v-1.7h-7.4v1.7h2.7V75.4z M249.3,75.4h2v-6.2l4.7,6.2h1.5v-9.9h-2v6.2l-4.7-6.2h-1.5V75.4z M243.6,75.4h2v-9.9h-2V75.4z
				"/>
		</g>
		<g>
			<defs>
				<rect id="SVGID_5_" x="220" y="28.2" width="157.1" height="70.9"/>
			</defs>
			<clipPath id="SVGID_6_">
				<use xlink:href="#SVGID_5_"  style="overflow:visible;"/>
			</clipPath>
			<path class="st2" d="M310.8,66c-0.9-0.4-1.9-0.6-3-0.6c-3.2,0-5.4,2.2-5.4,5.2c0,3,2.3,5.2,5.5,5.2c1.2,0,2.3-0.2,3.3-0.6v-4.7
				h-2v3.4c-0.4,0.1-0.8,0.2-1.2,0.2c-1.9,0-3.5-1.2-3.5-3.4c0-2,1.4-3.4,3.3-3.4c0.9,0,1.6,0.2,2.4,0.5L310.8,66z"/>
		</g>
		<g>
			<defs>
				<rect id="SVGID_7_" x="220" y="28.2" width="157.1" height="70.9"/>
			</defs>
			<clipPath id="SVGID_8_">
				<use xlink:href="#SVGID_7_"  style="overflow:visible;"/>
			</clipPath>
			<path class="st3" d="M296.1,52.4c-0.9-0.4-1.9-0.6-3-0.6c-3.2,0-5.4,2.2-5.4,5.2c0,3,2.3,5.2,5.5,5.2c1.2,0,2.3-0.2,3.3-0.6v-4.7
				h-2v3.4c-0.4,0.1-0.8,0.2-1.2,0.2c-1.9,0-3.5-1.2-3.5-3.4c0-2,1.4-3.4,3.3-3.4c0.9,0,1.6,0.2,2.4,0.5L296.1,52.4z"/>
		</g>
	</g>
	<polygon class="st4" points="220,28.2 220,99 255.5,99 255.5,87.2 231.9,87.2 231.9,40 255.5,40 255.5,28.2 	"/>
	<rect x="365.2" y="28.2" class="st4" width="11.8" height="70.9"/>
</g>
</svg>
